<svg width="25" height="25" viewBox="0 0 25 25" fill="none" xmlns="http://www.w3.org/2000/svg">
<path d="M12.1484 22.6211C10.0717 22.6211 8.04167 22.0053 6.31495 20.8515C4.58824 19.6978 3.24243 18.0579 2.44771 16.1393C1.65299 14.2207 1.44505 12.1095 1.8502 10.0727C2.25534 8.03585 3.25537 6.16493 4.72382 4.69648C6.19227 3.22803 8.06319 2.228 10.1 1.82285C12.1368 1.41771 14.248 1.62564 16.1666 2.42036C18.0852 3.21508 19.7251 4.56089 20.8789 6.28761C22.0326 8.01433 22.6484 10.0444 22.6484 12.1211C22.6484 14.9059 21.5422 17.5766 19.5731 19.5457C17.6039 21.5149 14.9332 22.6211 12.1484 22.6211ZM12.1484 3.1211C10.3684 3.1211 8.62835 3.64894 7.14831 4.63787C5.66827 5.6268 4.51472 7.03241 3.83353 8.67695C3.15234 10.3215 2.97411 12.1311 3.32137 13.8769C3.66864 15.6227 4.52581 17.2264 5.78448 18.4851C7.04315 19.7437 8.6468 20.6009 10.3926 20.9482C12.1385 21.2954 13.9481 21.1172 15.5926 20.436C17.2371 19.7548 18.6427 18.6013 19.6317 17.1212C20.6206 15.6412 21.1484 13.9011 21.1484 12.1211C21.1484 9.73415 20.2002 7.44496 18.5124 5.75714C16.8246 4.06931 14.5354 3.1211 12.1484 3.1211Z" fill="black"/>
<path d="M15.5909 16.6211L11.3984 12.4286V5.37109H12.8984V11.8061L16.6484 15.5636L15.5909 16.6211Z" fill="black"/>
</svg>
