<svg width="43" height="37" viewBox="0 0 43 37" fill="none" xmlns="http://www.w3.org/2000/svg">
<g clip-path="url(#clip0_1446_572)">
<path d="M35.0326 17.474H22.1933V6.1684C22.1933 5.89582 22.0703 5.6344 21.8514 5.44165C21.6325 5.24891 21.3356 5.14062 21.0261 5.14062C20.7165 5.14062 20.4196 5.24891 20.2007 5.44165C19.9818 5.6344 19.8588 5.89582 19.8588 6.1684V17.474H7.01954C6.70997 17.474 6.41309 17.5822 6.1942 17.775C5.9753 17.9677 5.85233 18.2292 5.85233 18.5017C5.84657 18.6353 5.87339 18.7684 5.93099 18.8921C5.98859 19.0158 6.07563 19.1271 6.18624 19.2187C6.29685 19.3102 6.42846 19.3799 6.5722 19.4228C6.71595 19.4658 6.86849 19.4812 7.01954 19.4678H19.8588V30.8351C19.8588 31.1077 19.9818 31.3691 20.2007 31.5618C20.4196 31.7546 20.7165 31.8628 21.0261 31.8628C21.3356 31.8628 21.6325 31.7546 21.8514 31.5618C22.0703 31.3691 22.1933 31.1077 22.1933 30.8351V19.5295H35.0326C35.3421 19.5295 35.639 19.4212 35.8579 19.2285C36.0768 19.0357 36.1998 18.7743 36.1998 18.5017C36.1998 18.2292 36.0768 17.9677 35.8579 17.775C35.639 17.5822 35.3421 17.474 35.0326 17.474Z" fill="#16161A"/>
</g>
<defs>
<clipPath id="clip0_1446_572">
<rect width="42.0196" height="37" fill="white" transform="translate(0.0166016)"/>
</clipPath>
</defs>
</svg>
