<svg width="19" height="18" viewBox="0 0 19 18" fill="none" xmlns="http://www.w3.org/2000/svg">
<path d="M4.36166 5.87216L8.61979 1.29904C8.67147 1.24454 8.73363 1.20103 8.80253 1.17113C8.87143 1.14122 8.94566 1.12554 9.02078 1.12501C9.09589 1.12449 9.17033 1.13913 9.23964 1.16807C9.30896 1.19701 9.37172 1.23964 9.42416 1.29341L13.6823 5.86654C13.9973 6.20179 13.7498 6.74573 13.2829 6.74573H11.2354C11.0385 6.74573 10.8754 6.90548 10.8754 7.09729V10.0195C10.8754 10.3823 10.5773 10.6737 10.206 10.6737H7.83229C7.46666 10.6737 7.16291 10.3823 7.16854 10.0251V7.10291C7.16676 7.00877 7.128 6.9191 7.06063 6.85331C6.99326 6.78752 6.9027 6.75089 6.80853 6.75135H4.76104C4.29416 6.75135 4.04666 6.21304 4.36166 5.87216ZM7.01947 11.7098H3.39697C3.0876 11.7098 2.83447 11.9629 2.83447 12.2723C2.83447 12.5817 3.0876 12.8348 3.39697 12.8348H4.64572V16.3054C4.64572 16.6148 4.89885 16.8679 5.20822 16.8679C5.5176 16.8679 5.77072 16.6148 5.77072 16.3054V12.8348H7.01947C7.32885 12.8348 7.58197 12.5817 7.58197 12.2723C7.58197 11.9573 7.32885 11.7098 7.01947 11.7098ZM12.3013 11.7154H13.8595C14.7088 11.7154 15.4007 12.4073 15.4007 13.2567C15.4007 14.106 14.7088 14.7979 13.8595 14.7979H12.8638V16.311C12.8638 16.6204 12.6107 16.8735 12.3013 16.8735C11.992 16.8735 11.7388 16.6204 11.7388 16.311V12.2779C11.7388 11.9685 11.992 11.7154 12.3013 11.7154ZM12.8638 13.6729H13.8595C14.0901 13.6729 14.2757 13.4873 14.2757 13.2567C14.2757 13.026 14.0901 12.8404 13.8595 12.8404H12.8638V13.6729ZM7.58197 15.1073C7.58197 16.0804 8.3751 16.8735 9.35385 16.8735C10.327 16.8735 11.1257 16.0804 11.1257 15.1073V13.4873C11.1257 12.5142 10.3326 11.721 9.35385 11.721C8.3751 11.721 7.58197 12.5142 7.58197 13.4873V15.1073ZM8.70697 13.4873C8.70697 13.3157 8.77513 13.1512 8.89644 13.0299C9.01775 12.9086 9.18229 12.8404 9.35385 12.8404C9.52541 12.8404 9.68995 12.9086 9.81126 13.0299C9.93257 13.1512 10.0007 13.3157 10.0007 13.4873V15.1073C10.0007 15.4673 9.70822 15.7542 9.35385 15.7542C8.99947 15.7542 8.70697 15.4617 8.70697 15.1073V13.4873Z" fill="#321B41"/>
</svg>
