<svg width="65" height="62" viewBox="0 0 65 62" fill="none" xmlns="http://www.w3.org/2000/svg">
<g clip-path="url(#clip0_1561_3257)">
<path d="M61.244 12.0872C58.9507 13.1033 56.5181 13.7702 54.0273 14.0656C56.6218 12.5106 58.6139 10.0482 59.5519 7.11421C57.0855 8.57774 54.3871 9.60894 51.5732 10.1633C49.2811 7.72139 46.0158 6.19531 42.4017 6.19531C35.4624 6.19531 29.8364 11.8211 29.8364 18.7599C29.8364 19.7448 29.9476 20.7037 30.1617 21.6235C19.7191 21.0994 10.4608 16.0972 4.2634 8.49531C3.18206 10.3511 2.56244 12.5097 2.56244 14.8121C2.56244 19.1714 4.78086 23.0171 8.15215 25.2704C6.1568 25.2081 4.20534 24.6691 2.46077 23.6987C2.46013 23.7513 2.45989 23.804 2.46005 23.8568C2.46005 29.9446 6.79115 35.0231 12.539 36.1774C10.6887 36.6805 8.74792 36.7542 6.86483 36.3927C8.46364 41.3845 13.1041 45.0171 18.6022 45.1188C14.3019 48.4886 8.88397 50.4975 2.99737 50.4975C1.98301 50.4975 0.983014 50.4379 0 50.3219C5.56053 53.8869 12.1651 55.9671 19.2608 55.9671C42.3725 55.9671 55.0105 36.8209 55.0105 20.2171C55.0105 19.6721 54.9984 19.1302 54.9742 18.5915C57.4339 16.813 59.557 14.6105 61.244 12.0872Z" fill="#55ACEE"/>
</g>
<defs>
<clipPath id="clip0_1561_3257">
<rect width="61.244" height="50" fill="white" transform="translate(0 6)"/>
</clipPath>
</defs>
</svg>
