<svg width="40" height="44" viewBox="0 0 40 44" fill="none" xmlns="http://www.w3.org/2000/svg">
<rect x="1.05713" y="0.90625" width="38.332" height="41.7441" rx="4.5" stroke="#60E45E"/>
<path d="M28.922 21.598C28.2373 19.9725 27.0485 18.5667 25.5026 17.5544C23.9567 16.5422 22.1214 15.9678 20.2237 15.9023C18.326 15.9678 16.4908 16.5422 14.9449 17.5544C13.399 18.5667 12.2102 19.9725 11.5254 21.598C11.4792 21.7154 11.4792 21.8439 11.5254 21.9613C12.2102 23.5869 13.399 24.9926 14.9449 26.0049C16.4908 27.0171 18.326 27.5915 20.2237 27.657C22.1214 27.5915 23.9567 27.0171 25.5026 26.0049C27.0485 24.9926 28.2373 23.5869 28.922 21.9613C28.9683 21.8439 28.9683 21.7154 28.922 21.598ZM20.2237 26.5884C17.138 26.5884 13.8776 24.4886 12.6957 21.7797C13.8776 19.0707 17.138 16.9709 20.2237 16.9709C23.3095 16.9709 26.5699 19.0707 27.7518 21.7797C26.5699 24.4886 23.3095 26.5884 20.2237 26.5884Z" fill="#60E45E"/>
<path d="M20.2238 18.5742C19.5329 18.5742 18.8575 18.7622 18.283 19.1145C17.7085 19.4668 17.2608 19.9674 16.9964 20.5532C16.732 21.139 16.6628 21.7836 16.7976 22.4054C16.9324 23.0273 17.2651 23.5985 17.7536 24.0469C18.2422 24.4952 18.8646 24.8005 19.5423 24.9242C20.2199 25.0479 20.9223 24.9844 21.5606 24.7418C22.1989 24.4992 22.7445 24.0883 23.1283 23.5611C23.5122 23.0339 23.7171 22.4141 23.7171 21.78C23.7171 20.9298 23.349 20.1144 22.6939 19.5132C22.0388 18.912 21.1503 18.5742 20.2238 18.5742ZM20.2238 23.9172C19.7632 23.9172 19.3129 23.7919 18.9299 23.557C18.5469 23.3222 18.2484 22.9884 18.0722 22.5979C17.8959 22.2074 17.8498 21.7777 17.9397 21.3631C18.0295 20.9485 18.2513 20.5677 18.577 20.2688C18.9027 19.9699 19.3177 19.7664 19.7694 19.6839C20.2212 19.6014 20.6894 19.6437 21.115 19.8055C21.5405 19.9673 21.9043 20.2412 22.1602 20.5927C22.4161 20.9441 22.5526 21.3573 22.5526 21.78C22.5526 22.3468 22.3073 22.8905 21.8705 23.2913C21.4338 23.6921 20.8414 23.9172 20.2238 23.9172Z" fill="#60E45E"/>
</svg>
