<svg width="130" height="70" viewBox="0 0 130 70" fill="none" xmlns="http://www.w3.org/2000/svg">
<rect x="0.5" y="1.3125" width="129" height="67.7086" rx="4.5" stroke="#8E8D89" stroke-dasharray="3 3"/>
<rect x="45" y="15" width="40" height="40" rx="20" fill="#7F5AF0"/>
<g clip-path="url(#clip0_1568_1677)">
<path d="M70.5616 33.172H65.1295V27.7399C65.1295 27.6089 65.0775 27.4833 64.9848 27.3907C64.8922 27.2981 64.7666 27.2461 64.6357 27.2461C64.5047 27.2461 64.3791 27.2981 64.2865 27.3907C64.1939 27.4833 64.1418 27.6089 64.1418 27.7399V33.172H58.7097C58.5788 33.172 58.4531 33.224 58.3605 33.3167C58.2679 33.4093 58.2159 33.5349 58.2159 33.6658C58.2135 33.73 58.2248 33.794 58.2492 33.8534C58.2736 33.9128 58.3104 33.9663 58.3572 34.0103C58.404 34.0543 58.4597 34.0878 58.5205 34.1084C58.5813 34.1291 58.6458 34.1364 58.7097 34.13H64.1418V39.5918C64.1418 39.7227 64.1939 39.8484 64.2865 39.941C64.3791 40.0336 64.5047 40.0856 64.6357 40.0856C64.7666 40.0856 64.8922 40.0336 64.9848 39.941C65.0775 39.8484 65.1295 39.7227 65.1295 39.5918V34.1597H70.5616C70.6926 34.1597 70.8182 34.1076 70.9108 34.015C71.0034 33.9224 71.0554 33.7968 71.0554 33.6658C71.0554 33.5349 71.0034 33.4093 70.9108 33.3167C70.8182 33.224 70.6926 33.172 70.5616 33.172Z" fill="white"/>
</g>
<defs>
<clipPath id="clip0_1568_1677">
<rect width="17.7778" height="17.7778" fill="white" transform="translate(55.7468 24.7773)"/>
</clipPath>
</defs>
</svg>
