<svg width="40" height="44" viewBox="0 0 40 44" fill="none" xmlns="http://www.w3.org/2000/svg">
<rect x="1.06006" y="0.90625" width="38.332" height="41.7441" rx="4.5" stroke="#60E45E"/>
<path d="M28.925 21.598C28.2402 19.9725 27.0514 18.5667 25.5055 17.5544C23.9596 16.5422 22.1244 15.9678 20.2267 15.9023C18.3289 15.9678 16.4937 16.5422 14.9478 17.5544C13.4019 18.5667 12.2131 19.9725 11.5283 21.598C11.4821 21.7154 11.4821 21.8439 11.5283 21.9613C12.2131 23.5869 13.4019 24.9926 14.9478 26.0049C16.4937 27.0171 18.3289 27.5915 20.2267 27.657C22.1244 27.5915 23.9596 27.0171 25.5055 26.0049C27.0514 24.9926 28.2402 23.5869 28.925 21.9613C28.9712 21.8439 28.9712 21.7154 28.925 21.598ZM20.2267 26.5884C17.1409 26.5884 13.8805 24.4886 12.6986 21.7797C13.8805 19.0707 17.1409 16.9709 20.2267 16.9709C23.3124 16.9709 26.5728 19.0707 27.7547 21.7797C26.5728 24.4886 23.3124 26.5884 20.2267 26.5884Z" fill="#60E45E"/>
<path d="M20.2267 18.5742C19.5358 18.5742 18.8604 18.7622 18.2859 19.1145C17.7115 19.4668 17.2637 19.9674 16.9993 20.5532C16.7349 21.139 16.6657 21.7836 16.8005 22.4054C16.9353 23.0273 17.268 23.5985 17.7566 24.0469C18.2451 24.4952 18.8676 24.8005 19.5452 24.9242C20.2228 25.0479 20.9252 24.9844 21.5635 24.7418C22.2018 24.4992 22.7474 24.0883 23.1313 23.5611C23.5151 23.0339 23.72 22.4141 23.72 21.78C23.72 20.9298 23.352 20.1144 22.6968 19.5132C22.0417 18.912 21.1532 18.5742 20.2267 18.5742ZM20.2267 23.9172C19.7661 23.9172 19.3158 23.7919 18.9329 23.557C18.5499 23.3222 18.2514 22.9884 18.0751 22.5979C17.8988 22.2074 17.8527 21.7777 17.9426 21.3631C18.0324 20.9485 18.2542 20.5677 18.5799 20.2688C18.9056 19.9699 19.3206 19.7664 19.7724 19.6839C20.2241 19.6014 20.6924 19.6437 21.1179 19.8055C21.5435 19.9673 21.9072 20.2412 22.1631 20.5927C22.419 20.9441 22.5556 21.3573 22.5556 21.78C22.5556 22.3468 22.3102 22.8905 21.8735 23.2913C21.4367 23.6921 20.8444 23.9172 20.2267 23.9172Z" fill="#60E45E"/>
</svg>
