<svg width="24" height="25" viewBox="0 0 24 25" fill="none" xmlns="http://www.w3.org/2000/svg">
<path d="M15.88 9.78811L12 13.6681L8.11999 9.78811C8.02741 9.69553 7.9175 9.62209 7.79653 9.57199C7.67557 9.52188 7.54592 9.49609 7.41499 9.49609C7.28406 9.49609 7.15441 9.52188 7.03345 9.57199C6.91248 9.62209 6.80257 9.69553 6.70999 9.78811C6.61741 9.8807 6.54397 9.99061 6.49386 10.1116C6.44376 10.2325 6.41797 10.3622 6.41797 10.4931C6.41797 10.624 6.44376 10.7537 6.49386 10.8747C6.54397 10.9956 6.61741 11.1055 6.70999 11.1981L11.3 15.7881C11.69 16.1781 12.32 16.1781 12.71 15.7881L17.3 11.1981C17.3927 11.1056 17.4662 10.9957 17.5164 10.8747C17.5666 10.7538 17.5924 10.6241 17.5924 10.4931C17.5924 10.3621 17.5666 10.2325 17.5164 10.1115C17.4662 9.99052 17.3927 9.88063 17.3 9.78811C16.91 9.40811 16.27 9.39811 15.88 9.78811Z" fill="black"/>
</svg>
