<svg width="20" height="20" viewBox="0 0 20 20" fill="none" xmlns="http://www.w3.org/2000/svg">
<path d="M18.1395 1.92167C18.061 1.83568 17.9659 1.76647 17.86 1.71821C17.7541 1.66995 17.6395 1.64364 17.5231 1.64087C17.4068 1.6381 17.291 1.65891 17.1829 1.70207C17.0748 1.74523 16.9766 1.80983 16.8941 1.89198L16.1789 2.60487L17.3969 3.81971L18.1 3.1201C18.26 2.96407 18.3535 2.7522 18.3608 2.52882C18.3682 2.30545 18.2889 2.08788 18.1395 1.92167ZM9.87344 13.1248H6.875V10.1264L7.24219 9.75995L12.6383 4.37479H1.875V18.1248H15.625V7.36151L10.2398 12.7576L9.87344 13.1248ZM15.625 5.59198L16.9059 4.30839L15.6914 3.09393L14.4082 4.37479H15.625V5.59198Z" fill="#4D536B"/>
<path d="M8.125 11.875H9.35508L15.625 5.59219V4.375H14.4082L8.125 10.6449V11.875Z" fill="#4D536B"/>
</svg>
