<svg width="26" height="24" viewBox="0 0 26 24" fill="none" xmlns="http://www.w3.org/2000/svg">
<g clip-path="url(#clip0_1584_2021)">
<path d="M25.8 12C25.8 5.37263 20.0244 0 12.9 0C5.77557 0 0 5.37263 0 12C0 17.9895 4.71737 22.954 10.8844 23.8542V15.4688H7.60898V12H10.8844V9.35625C10.8844 6.34875 12.8103 4.6875 15.7569 4.6875C17.1683 4.6875 18.6445 4.92188 18.6445 4.92188V7.875H17.0179C15.4154 7.875 14.9156 8.80003 14.9156 9.74906V12H18.4934L17.9214 15.4688H14.9156V23.8542C21.0826 22.954 25.8 17.9896 25.8 12Z" fill="#1877F2"/>
<path d="M17.9213 15.4688L18.4933 12H14.9155V9.74906C14.9155 8.79994 15.4153 7.875 17.0178 7.875H18.6444V4.92188C18.6444 4.92188 17.1682 4.6875 15.7567 4.6875C12.8102 4.6875 10.8843 6.34875 10.8843 9.35625V12H7.60889V15.4688H10.8843V23.8542C11.5511 23.9514 12.225 24.0001 12.8999 24C13.5748 24.0001 14.2487 23.9514 14.9155 23.8542V15.4688H17.9213Z" fill="white"/>
</g>
<defs>
<clipPath id="clip0_1584_2021">
<rect width="25.8" height="24" fill="white"/>
</clipPath>
</defs>
</svg>
