<svg width="74" height="60" viewBox="0 0 74 60" fill="none" xmlns="http://www.w3.org/2000/svg">
<g clip-path="url(#clip0_1584_2004)">
<path d="M73.4928 7.30461C70.7409 8.52394 67.8218 9.32421 64.8327 9.67878C67.9461 7.81275 70.3367 4.85782 71.4623 1.33705C68.5026 3.09329 65.2645 4.33072 61.8879 4.99591C59.1373 2.06567 55.219 0.234375 50.882 0.234375C42.5549 0.234375 35.8036 6.98538 35.8036 15.3119C35.8036 16.4938 35.9371 17.6444 36.1941 18.7482C23.663 18.1193 12.5529 12.1167 5.11608 2.99438C3.81847 5.22126 3.07493 7.8116 3.07493 10.5745C3.07493 15.8057 5.73703 20.4205 9.78258 23.1245C7.38816 23.0497 5.04641 22.4029 2.95292 21.2384C2.95215 21.3016 2.95187 21.3648 2.95206 21.4282C2.95206 28.7335 8.14938 34.8277 15.0468 36.2128C12.8265 36.8166 10.4975 36.905 8.2378 36.4712C10.1564 42.4615 15.7249 46.8205 22.3226 46.9425C17.1623 50.9863 10.6608 53.397 3.59684 53.397C2.37962 53.397 1.17962 53.3255 0 53.1862C6.67263 57.4643 14.5981 59.9605 23.1129 59.9605C50.847 59.9605 66.0126 36.9851 66.0126 17.0605C66.0126 16.4065 65.9981 15.7563 65.969 15.1098C68.9207 12.9756 71.4684 10.3326 73.4928 7.30461Z" fill="#55ACEE"/>
</g>
<defs>
<clipPath id="clip0_1584_2004">
<rect width="73.4928" height="60" fill="white"/>
</clipPath>
</defs>
</svg>
