<svg width="51" height="50" viewBox="0 0 51 50" fill="none" xmlns="http://www.w3.org/2000/svg">
<g clip-path="url(#clip0_1502_2919)">
<path d="M50.0942 25C50.0942 11.193 38.9013 0 25.0942 0C11.2872 0 0.0942383 11.193 0.0942383 25C0.0942383 37.4781 9.23643 47.8209 21.188 49.6963V32.2266H14.8403V25H21.188V19.4922C21.188 13.2266 24.9204 9.76563 30.631 9.76563C33.3661 9.76563 36.2271 10.2539 36.2271 10.2539V16.4063H33.0747C29.969 16.4063 29.0005 18.3334 29.0005 20.3105V25H35.9341L34.8257 32.2266H29.0005V49.6963C40.952 47.8209 50.0942 37.4783 50.0942 25Z" fill="#1877F2"/>
<path d="M34.8257 32.2266L35.9341 25H29.0005V20.3105C29.0005 18.3332 29.969 16.4062 33.0747 16.4062H36.2271V10.2539C36.2271 10.2539 33.3661 9.76562 30.6308 9.76562C24.9204 9.76562 21.188 13.2266 21.188 19.4922V25H14.8403V32.2266H21.188V49.6963C22.4802 49.8988 23.7862 50.0003 25.0942 50C26.4022 50.0003 27.7083 49.8988 29.0005 49.6963V32.2266H34.8257Z" fill="white"/>
</g>
<defs>
<clipPath id="clip0_1502_2919">
<rect width="50" height="50" fill="white" transform="translate(0.0942383)"/>
</clipPath>
</defs>
</svg>
