<svg width="65" height="60" viewBox="0 0 65 60" fill="none" xmlns="http://www.w3.org/2000/svg">
<g clip-path="url(#clip0_1584_1973)">
<path d="M64.5 30C64.5 13.4316 50.0611 0 32.25 0C14.4389 0 0 13.4316 0 30C0 44.9738 11.7934 57.3851 27.2109 59.6356V38.6719H19.0225V30H27.2109V23.3906C27.2109 15.8719 32.0258 11.7188 39.3924 11.7188C42.9207 11.7188 46.6113 12.3047 46.6113 12.3047V19.6875H42.5448C38.5385 19.6875 37.2891 22.0001 37.2891 24.3727V30H46.2334L44.8036 38.6719H37.2891V59.6356C52.7066 57.3851 64.5 44.974 64.5 30Z" fill="#1877F2"/>
<path d="M44.8036 38.6719L46.2334 30H37.2891V24.3727C37.2891 21.9998 38.5385 19.6875 42.5448 19.6875H46.6113V12.3047C46.6113 12.3047 42.9207 11.7188 39.3921 11.7188C32.0258 11.7188 27.2109 15.8719 27.2109 23.3906V30H19.0225V38.6719H27.2109V59.6355C28.8779 59.8785 30.5627 60.0004 32.25 60C33.9373 60.0004 35.6221 59.8785 37.2891 59.6355V38.6719H44.8036Z" fill="white"/>
</g>
<defs>
<clipPath id="clip0_1584_1973">
<rect width="64.5" height="60" fill="white"/>
</clipPath>
</defs>
</svg>
