<svg width="19" height="18" viewBox="0 0 19 18" fill="none" xmlns="http://www.w3.org/2000/svg">
<g clip-path="url(#clip0_1502_2910)">
<path d="M18.2 9C18.2 4.02947 14.1705 0 9.20001 0C4.22948 0 0.200012 4.02947 0.200012 9C0.200012 13.4921 3.4912 17.2155 7.79376 17.8907V11.6016H5.50861V9H7.79376V7.01719C7.79376 4.76156 9.13743 3.51562 11.1932 3.51562C12.1779 3.51562 13.2078 3.69141 13.2078 3.69141V5.90625H12.073C10.9549 5.90625 10.6063 6.60002 10.6063 7.3118V9H13.1024L12.7033 11.6016H10.6063V17.8907C14.9088 17.2155 18.2 13.4922 18.2 9Z" fill="#1877F2"/>
<path d="M12.7033 11.6016L13.1024 9H10.6063V7.3118C10.6063 6.59995 10.9549 5.90625 12.073 5.90625H13.2078V3.69141C13.2078 3.69141 12.1779 3.51562 11.1932 3.51562C9.13743 3.51562 7.79376 4.76156 7.79376 7.01719V9H5.50861V11.6016H7.79376V17.8907C8.25896 17.9636 8.72913 18.0001 9.20001 18C9.67089 18.0001 10.1411 17.9636 10.6063 17.8907V11.6016H12.7033Z" fill="white"/>
</g>
<defs>
<clipPath id="clip0_1502_2910">
<rect width="18" height="18" fill="white" transform="translate(0.200012)"/>
</clipPath>
</defs>
</svg>
