<svg width="18" height="18" viewBox="0 0 18 18" fill="none" xmlns="http://www.w3.org/2000/svg">
<path d="M6.41775 10.125H3.5115C3.12644 10.1272 2.7579 10.2817 2.4864 10.5547C2.21489 10.8278 2.06249 11.1972 2.0625 11.5822V14.4885C2.0625 14.8728 2.21516 15.2414 2.4869 15.5131C2.75864 15.7848 3.1272 15.9375 3.5115 15.9375H6.41775C6.80274 15.9375 7.17208 15.7851 7.44501 15.5136C7.71794 15.242 7.87227 14.8735 7.87425 14.4885V11.5822C7.87425 11.196 7.7208 10.8255 7.44765 10.5523C7.1745 10.2792 6.80404 10.1258 6.41775 10.1258M6.41775 2.0625H3.5115C3.32121 2.0625 3.13279 2.09998 2.95699 2.1728C2.78119 2.24562 2.62145 2.35235 2.4869 2.4869C2.35235 2.62145 2.24562 2.78119 2.1728 2.95699C2.09998 3.13279 2.0625 3.32121 2.0625 3.5115V6.41775C2.06249 6.80274 2.21492 7.17208 2.48644 7.44501C2.75797 7.71794 3.12651 7.87227 3.5115 7.87425H6.41775C6.80404 7.87425 7.1745 7.7208 7.44765 7.44765C7.7208 7.1745 7.87425 6.80404 7.87425 6.41775V3.5115C7.87227 3.12651 7.71794 2.75797 7.44501 2.48644C7.17208 2.21492 6.80274 2.06249 6.41775 2.0625ZM14.4885 2.0625H11.5822C11.1973 2.06249 10.8279 2.21492 10.555 2.48644C10.2821 2.75797 10.1277 3.12651 10.1258 3.5115V6.41775C10.1259 6.80398 10.2795 7.17433 10.5526 7.44743C10.8257 7.72054 11.196 7.87405 11.5822 7.87425H14.4885C14.8735 7.87227 15.242 7.71794 15.5136 7.44501C15.7851 7.17208 15.9375 6.80274 15.9375 6.41775V3.5115C15.9375 3.1272 15.7848 2.75864 15.5131 2.4869C15.2414 2.21516 14.8728 2.0625 14.4885 2.0625ZM13.0312 10.125C12.2605 10.125 11.5212 10.4312 10.9762 10.9762C10.4312 11.5212 10.125 12.2605 10.125 13.0312C10.125 13.802 10.4312 14.5413 10.9762 15.0863C11.5212 15.6313 12.2605 15.9375 13.0312 15.9375C13.802 15.9375 14.5413 15.6313 15.0863 15.0863C15.6313 14.5413 15.9375 13.802 15.9375 13.0312C15.9375 12.2605 15.6313 11.5212 15.0863 10.9762C14.5413 10.4312 13.802 10.125 13.0312 10.125Z" stroke="#5E5E74" stroke-width="1.5" stroke-linecap="round" stroke-linejoin="round"/>
</svg>
