<svg width="16" height="13" viewBox="0 0 16 13" fill="none" xmlns="http://www.w3.org/2000/svg">
<path d="M4.00078 1.96837L7.8913 5.31371L11.7617 1.98571C11.8471 1.90746 11.9501 1.84487 12.0644 1.80168C12.1788 1.75849 12.302 1.7356 12.4269 1.73438C12.6942 1.73438 12.9505 1.82568 13.1396 1.98822C13.3286 2.15075 13.4348 2.37119 13.4348 2.60104C13.4371 2.7073 13.4142 2.81284 13.3674 2.91121C13.3206 3.00957 13.2509 3.09867 13.1626 3.17304L9.24189 6.50104L13.1626 9.87238C13.3288 10.0121 13.4262 10.2014 13.4348 10.401C13.4348 10.6309 13.3286 10.8513 13.1396 11.0139C12.9505 11.1764 12.6942 11.2677 12.4269 11.2677C12.2984 11.2723 12.1703 11.2539 12.0505 11.2136C11.9308 11.1733 11.8221 11.112 11.7314 11.0337L7.8913 7.68837L4.01086 11.025C3.9257 11.1007 3.82396 11.1611 3.71152 11.2027C3.59907 11.2444 3.47815 11.2665 3.35573 11.2677C3.08841 11.2677 2.83205 11.1764 2.64303 11.0139C2.45401 10.8513 2.34782 10.6309 2.34782 10.401C2.34547 10.2948 2.3684 10.1892 2.41519 10.0909C2.46199 9.99252 2.53167 9.90341 2.61995 9.82904L6.54071 6.50104L2.61995 3.12971C2.45384 2.98997 2.35643 2.80073 2.34782 2.60104C2.34782 2.37119 2.45401 2.15075 2.64303 1.98822C2.83205 1.82568 3.08841 1.73438 3.35573 1.73438C3.59762 1.73698 3.82944 1.82104 4.00078 1.96837Z" fill="#E15C5C"/>
</svg>
