<svg width="17" height="18" viewBox="0 0 17 18" fill="none" xmlns="http://www.w3.org/2000/svg">
<path d="M5.26659 14.8361C4.96517 14.8361 4.70807 14.724 4.49528 14.4999C4.28294 14.2757 4.17677 14.0043 4.17677 13.6856V4.86251H3.50195V4.15011H6.20121V3.60156H10.2501V4.15011H12.9493V4.86251H12.2745V13.6856C12.2745 14.0133 12.1706 14.2869 11.9628 14.5063C11.7545 14.7262 11.4951 14.8361 11.1847 14.8361H5.26659ZM11.5997 4.86251H4.85158V13.6856C4.85158 13.8134 4.89049 13.9183 4.96832 14.0005C5.04615 14.0827 5.14557 14.1237 5.26659 14.1237H11.1847C11.2882 14.1237 11.3833 14.0781 11.4702 13.987C11.5565 13.8953 11.5997 13.7948 11.5997 13.6856V4.86251ZM6.74646 12.6989H7.42127V6.28732H6.74646V12.6989ZM9.03003 12.6989H9.70484V6.28732H9.03003V12.6989Z" fill="#E15C5C"/>
</svg>
