<svg width="17" height="18" viewBox="0 0 17 18" fill="none" xmlns="http://www.w3.org/2000/svg">
<path d="M5.26415 14.8361C4.96273 14.8361 4.70563 14.724 4.49284 14.4999C4.2805 14.2757 4.17433 14.0043 4.17433 13.6856V4.86251H3.49951V4.15011H6.19877V3.60156H10.2476V4.15011H12.9469V4.86251H12.2721V13.6856C12.2721 14.0133 12.1682 14.2869 11.9603 14.5063C11.752 14.7262 11.4927 14.8361 11.1823 14.8361H5.26415ZM11.5973 4.86251H4.84914V13.6856C4.84914 13.8134 4.88805 13.9183 4.96588 14.0005C5.04371 14.0827 5.14313 14.1237 5.26415 14.1237H11.1823C11.2857 14.1237 11.3809 14.0781 11.4677 13.987C11.5541 13.8953 11.5973 13.7948 11.5973 13.6856V4.86251ZM6.74402 12.6989H7.41883V6.28732H6.74402V12.6989ZM9.02759 12.6989H9.7024V6.28732H9.02759V12.6989Z" fill="#E15C5C"/>
</svg>
