<svg width="28" height="26" viewBox="0 0 28 26" fill="none" xmlns="http://www.w3.org/2000/svg">
<g clip-path="url(#clip0_1559_1655)">
<path fill-rule="evenodd" clip-rule="evenodd" d="M14.0002 2.16797C20.4437 2.16797 25.6668 7.01805 25.6668 13.0013C25.6709 15.5015 24.7397 17.9254 23.0325 19.8588L23.0558 19.8826L22.9018 20.004C21.8077 21.2055 20.4442 22.1708 18.9067 22.8324C17.3692 23.4941 15.6947 23.8361 14.0002 23.8346C10.5585 23.8346 7.46684 22.4512 5.33184 20.2521L5.09851 20.0029L4.94451 19.8837L4.96784 19.8577C3.2609 17.9246 2.32976 15.5011 2.33351 13.0013C2.33351 7.01805 7.55667 2.16797 14.0002 2.16797ZM14.0002 18.418C11.8302 18.418 9.86901 19.0593 8.40834 19.9411C10.0214 21.0645 11.9839 21.6706 14.0002 21.668C16.0164 21.6706 17.979 21.0645 19.592 19.9411C17.9229 18.9482 15.9825 18.4196 14.0002 18.418ZM14.0002 4.33464C12.2438 4.33459 10.523 4.79474 9.03568 5.66221C7.54834 6.52967 6.35478 7.76923 5.59219 9.23842C4.82961 10.7076 4.52895 12.3468 4.72477 13.9676C4.92059 15.5883 5.60494 17.1249 6.69917 18.4006C8.59034 17.1407 11.171 16.2513 14.0002 16.2513C16.8293 16.2513 19.41 17.1407 21.3012 18.4006C22.3954 17.1249 23.0798 15.5883 23.2756 13.9676C23.4714 12.3468 23.1707 10.7076 22.4082 9.23842C21.6456 7.76923 20.452 6.52967 18.9647 5.66221C17.4773 4.79474 15.7566 4.33459 14.0002 4.33464ZM14.0002 6.5013C15.2379 6.5013 16.4248 6.95785 17.3 7.77051C18.1752 8.58316 18.6668 9.68536 18.6668 10.8346C18.6668 11.9839 18.1752 13.0861 17.3 13.8988C16.4248 14.7114 15.2379 15.168 14.0002 15.168C12.7625 15.168 11.5755 14.7114 10.7003 13.8988C9.82517 13.0861 9.33351 11.9839 9.33351 10.8346C9.33351 9.68536 9.82517 8.58316 10.7003 7.77051C11.5755 6.95785 12.7625 6.5013 14.0002 6.5013ZM14.0002 8.66797C13.3813 8.66797 12.7878 8.89624 12.3503 9.30257C11.9127 9.7089 11.6668 10.26 11.6668 10.8346C11.6668 11.4093 11.9127 11.9604 12.3503 12.3667C12.7878 12.773 13.3813 13.0013 14.0002 13.0013C14.619 13.0013 15.2125 12.773 15.6501 12.3667C16.0877 11.9604 16.3335 11.4093 16.3335 10.8346C16.3335 10.26 16.0877 9.7089 15.6501 9.30257C15.2125 8.89624 14.619 8.66797 14.0002 8.66797Z" fill="#3B3B42"/>
</g>
<defs>
<clipPath id="clip0_1559_1655">
<rect width="28" height="26" fill="white"/>
</clipPath>
</defs>
</svg>
