<svg width="40" height="40" viewBox="0 0 40 40" fill="none" xmlns="http://www.w3.org/2000/svg">
<g clip-path="url(#clip0_1541_1322)">
<path fill-rule="evenodd" clip-rule="evenodd" d="M20.0002 3.33203C29.2052 3.33203 36.6668 10.7937 36.6668 19.9987C36.6726 23.8452 35.3424 27.5743 32.9035 30.5487L32.9368 30.5854L32.7168 30.772C31.1537 32.6206 29.206 34.1056 27.0096 35.1235C24.8131 36.1414 22.421 36.6676 20.0002 36.6654C15.0835 36.6654 10.6668 34.537 7.61685 31.1537L7.28351 30.7704L7.06351 30.587L7.09685 30.547C4.65835 27.573 3.32816 23.8446 3.33351 19.9987C3.33351 10.7937 10.7952 3.33203 20.0002 3.33203ZM20.0002 28.332C16.9002 28.332 14.0985 29.3187 12.0118 30.6754C14.3162 32.4036 17.1198 33.336 20.0002 33.332C22.8806 33.336 25.6842 32.4036 27.9885 30.6754C25.604 29.1477 22.8321 28.3346 20.0002 28.332ZM20.0002 6.66536C17.4911 6.66529 15.0328 7.37322 12.908 8.70778C10.7833 10.0423 9.07819 11.9494 7.98878 14.2097C6.89937 16.4699 6.46985 18.9918 6.7496 21.4852C7.02934 23.9787 8.00699 26.3427 9.57018 28.3054C12.2718 26.367 15.9585 24.9987 20.0002 24.9987C24.0418 24.9987 27.7285 26.367 30.4302 28.3054C31.9934 26.3427 32.971 23.9787 33.2508 21.4852C33.5305 18.9918 33.101 16.4699 32.0116 14.2097C30.9222 11.9494 29.2171 10.0423 27.0923 8.70778C24.9675 7.37322 22.5093 6.66529 20.0002 6.66536ZM20.0002 9.9987C21.7683 9.9987 23.464 10.7011 24.7142 11.9513C25.9645 13.2016 26.6668 14.8973 26.6668 16.6654C26.6668 18.4335 25.9645 20.1292 24.7142 21.3794C23.464 22.6297 21.7683 23.332 20.0002 23.332C18.2321 23.332 16.5364 22.6297 15.2861 21.3794C14.0359 20.1292 13.3335 18.4335 13.3335 16.6654C13.3335 14.8973 14.0359 13.2016 15.2861 11.9513C16.5364 10.7011 18.2321 9.9987 20.0002 9.9987ZM20.0002 13.332C19.1161 13.332 18.2683 13.6832 17.6432 14.3083C17.018 14.9335 16.6668 15.7813 16.6668 16.6654C16.6668 17.5494 17.018 18.3973 17.6432 19.0224C18.2683 19.6475 19.1161 19.9987 20.0002 19.9987C20.8842 19.9987 21.7321 19.6475 22.3572 19.0224C22.9823 18.3973 23.3335 17.5494 23.3335 16.6654C23.3335 15.7813 22.9823 14.9335 22.3572 14.3083C21.7321 13.6832 20.8842 13.332 20.0002 13.332Z" fill="#3B3B42"/>
</g>
<defs>
<clipPath id="clip0_1541_1322">
<rect width="40" height="40" fill="white"/>
</clipPath>
</defs>
</svg>
