<svg width="38" height="35" viewBox="0 0 38 35" fill="none" xmlns="http://www.w3.org/2000/svg">
<path d="M6.45312 29.5768L14.9887 21.4977M32.6289 14.4958C32.6289 15.7689 32.364 17.0296 31.8493 18.2059C31.3345 19.3821 30.58 20.4509 29.6289 21.3511C28.6778 22.2514 27.5486 22.9655 26.3059 23.4528C25.0632 23.94 23.7313 24.1907 22.3862 24.1907C21.0411 24.1907 19.7092 23.94 18.4665 23.4528C17.2238 22.9655 16.0947 22.2514 15.1435 21.3511C14.1924 20.4509 13.4379 19.3821 12.9232 18.2059C12.4085 17.0296 12.1435 15.7689 12.1435 14.4958C12.1435 11.9245 13.2227 9.45854 15.1435 7.64038C17.0644 5.82221 19.6697 4.80078 22.3862 4.80078C25.1028 4.80078 27.708 5.82221 29.6289 7.64038C31.5498 9.45854 32.6289 11.9245 32.6289 14.4958Z" stroke="#8E8D89" stroke-width="2" stroke-linecap="round" stroke-linejoin="round"/>
</svg>
