<svg width="15" height="16" viewBox="0 0 15 16" fill="none" xmlns="http://www.w3.org/2000/svg">
<path d="M7.5 2.375C6.8125 2.375 6.25 2.9375 6.25 3.625C6.25 4.3125 6.8125 4.875 7.5 4.875C8.1875 4.875 8.75 4.3125 8.75 3.625C8.75 2.9375 8.1875 2.375 7.5 2.375ZM7.5 11.125C6.8125 11.125 6.25 11.6875 6.25 12.375C6.25 13.0625 6.8125 13.625 7.5 13.625C8.1875 13.625 8.75 13.0625 8.75 12.375C8.75 11.6875 8.1875 11.125 7.5 11.125ZM7.5 6.75C6.8125 6.75 6.25 7.3125 6.25 8C6.25 8.6875 6.8125 9.25 7.5 9.25C8.1875 9.25 8.75 8.6875 8.75 8C8.75 7.3125 8.1875 6.75 7.5 6.75Z" fill="black"/>
</svg>
