<svg width="51" height="50" viewBox="0 0 51 50" fill="none" xmlns="http://www.w3.org/2000/svg">
<g clip-path="url(#clip0_1502_2922)">
<path d="M38.3755 0H11.813C5.3409 0 0.0942383 5.24666 0.0942383 11.7188V38.2812C0.0942383 44.7533 5.3409 50 11.813 50H38.3755C44.8476 50 50.0942 44.7533 50.0942 38.2812V11.7188C50.0942 5.24666 44.8476 0 38.3755 0Z" fill="url(#paint0_radial_1502_2922)"/>
<path d="M38.3755 0H11.813C5.3409 0 0.0942383 5.24666 0.0942383 11.7188V38.2812C0.0942383 44.7533 5.3409 50 11.813 50H38.3755C44.8476 50 50.0942 44.7533 50.0942 38.2812V11.7188C50.0942 5.24666 44.8476 0 38.3755 0Z" fill="url(#paint1_radial_1502_2922)"/>
<path d="M25.096 5.46875C19.7917 5.46875 19.1259 5.49199 17.0427 5.58672C14.9634 5.68203 13.544 6.01113 12.3022 6.49414C11.0175 6.99297 9.92783 7.66035 8.84229 8.74629C7.75576 9.83203 7.08838 10.9217 6.58799 12.2059C6.10361 13.448 5.77412 14.868 5.68057 16.9463C5.5874 19.0297 5.56299 19.6957 5.56299 25.0002C5.56299 30.3047 5.58643 30.9684 5.68096 33.0516C5.77666 35.1309 6.10576 36.5502 6.58838 37.792C7.0876 39.0768 7.75498 40.1664 8.84092 41.252C9.92627 42.3385 11.0159 43.0074 12.2997 43.5062C13.5425 43.9893 14.962 44.3184 17.0409 44.4137C19.1243 44.5084 19.7896 44.5316 25.0937 44.5316C30.3985 44.5316 31.0622 44.5084 33.1454 44.4137C35.2247 44.3184 36.6456 43.9893 37.8884 43.5062C39.1726 43.0074 40.2606 42.3385 41.3458 41.252C42.4323 40.1664 43.0995 39.0768 43.6001 37.7926C44.0802 36.5502 44.4099 35.1305 44.5075 33.052C44.6011 30.9688 44.6255 30.3047 44.6255 25.0002C44.6255 19.6957 44.6011 19.0301 44.5075 16.9467C44.4099 14.8674 44.0802 13.4482 43.6001 12.2064C43.0995 10.9217 42.4323 9.83203 41.3458 8.74629C40.2595 7.65996 39.173 6.99258 37.8872 6.49434C36.6421 6.01113 35.222 5.68184 33.1427 5.58672C31.0593 5.49199 30.396 5.46875 25.0899 5.46875H25.096ZM23.3438 8.98848C23.864 8.9877 24.4442 8.98848 25.096 8.98848C30.311 8.98848 30.929 9.00723 32.9884 9.10078C34.8927 9.18789 35.9263 9.50605 36.6147 9.77344C37.5263 10.1273 38.1761 10.5506 38.8593 11.2344C39.5429 11.918 39.9659 12.5689 40.3208 13.4805C40.5882 14.168 40.9067 15.2016 40.9935 17.1059C41.087 19.1648 41.1073 19.7832 41.1073 24.9957C41.1073 30.2082 41.087 30.8268 40.9935 32.8855C40.9063 34.7898 40.5882 35.8234 40.3208 36.5111C39.9669 37.4227 39.5429 38.0717 38.8593 38.7549C38.1757 39.4385 37.5267 39.8615 36.6147 40.2156C35.9271 40.4842 34.8927 40.8016 32.9884 40.8887C30.9294 40.9822 30.311 41.0025 25.096 41.0025C19.8808 41.0025 19.2626 40.9822 17.2038 40.8887C15.2995 40.8008 14.2659 40.4826 13.5769 40.2152C12.6655 39.8611 12.0144 39.4381 11.3308 38.7545C10.6472 38.0709 10.2241 37.4215 9.86924 36.5096C9.60186 35.8219 9.2833 34.7883 9.19658 32.884C9.10303 30.825 9.08428 30.2066 9.08428 24.9908C9.08428 19.7752 9.10303 19.16 9.19658 17.101C9.28369 15.1967 9.60186 14.1631 9.86924 13.4746C10.2233 12.5631 10.6472 11.9121 11.331 11.2285C12.0146 10.5449 12.6655 10.1217 13.5771 9.76699C14.2655 9.49844 15.2995 9.18105 17.2038 9.09355C19.0056 9.01211 19.7038 8.98769 23.3438 8.98359V8.98848ZM35.5218 12.2314C34.2278 12.2314 33.178 13.2803 33.178 14.5744C33.178 15.8684 34.2278 16.9182 35.5218 16.9182C36.8157 16.9182 37.8655 15.8684 37.8655 14.5744C37.8655 13.2805 36.8157 12.2307 35.5218 12.2307V12.2314ZM25.096 14.9699C19.5569 14.9699 15.0659 19.4609 15.0659 25.0002C15.0659 30.5395 19.5569 35.0283 25.096 35.0283C30.6353 35.0283 35.1247 30.5395 35.1247 25.0002C35.1247 19.4611 30.6349 14.9699 25.0956 14.9699H25.096ZM25.096 18.4896C28.6915 18.4896 31.6065 21.4043 31.6065 25.0002C31.6065 28.5957 28.6915 31.5107 25.096 31.5107C21.5003 31.5107 18.5856 28.5957 18.5856 25.0002C18.5856 21.4043 21.5003 18.4896 25.096 18.4896Z" fill="white"/>
</g>
<defs>
<radialGradient id="paint0_radial_1502_2922" cx="0" cy="0" r="1" gradientUnits="userSpaceOnUse" gradientTransform="translate(13.3755 53.851) rotate(-90) scale(49.5537 46.0889)">
<stop stop-color="#FFDD55"/>
<stop offset="0.1" stop-color="#FFDD55"/>
<stop offset="0.5" stop-color="#FF543E"/>
<stop offset="1" stop-color="#C837AB"/>
</radialGradient>
<radialGradient id="paint1_radial_1502_2922" cx="0" cy="0" r="1" gradientUnits="userSpaceOnUse" gradientTransform="translate(-8.28096 3.60176) rotate(78.681) scale(22.1508 91.3062)">
<stop stop-color="#3771C8"/>
<stop offset="0.128" stop-color="#3771C8"/>
<stop offset="1" stop-color="#6600FF" stop-opacity="0"/>
</radialGradient>
<clipPath id="clip0_1502_2922">
<rect width="50" height="50" fill="white" transform="translate(0.0942383)"/>
</clipPath>
</defs>
</svg>
