<svg width="18" height="18" viewBox="0 0 18 18" fill="none" xmlns="http://www.w3.org/2000/svg">
<g clip-path="url(#clip0_1498_1399)">
<path d="M14.6712 5.25C14.7115 5.02015 14.701 4.78428 14.6404 4.55892C14.5798 4.33357 14.4706 4.12421 14.3206 3.94554C14.1705 3.76686 13.9831 3.6232 13.7716 3.52464C13.5601 3.42607 13.3295 3.375 13.0962 3.375H4.9032C4.66985 3.375 4.43933 3.42607 4.22782 3.52464C4.0163 3.6232 3.82893 3.76686 3.67884 3.94554C3.52875 4.12421 3.41959 4.33357 3.35901 4.55892C3.29844 4.78428 3.28792 5.02015 3.3282 5.25M13.1247 3.375C13.1457 3.18 13.1569 3.08325 13.1569 3.003C13.1578 2.63227 13.0213 2.27437 12.7738 1.99835C12.5263 1.72232 12.1853 1.54773 11.8167 1.50825C11.7372 1.5 11.6397 1.5 11.4447 1.5H6.5547C6.3597 1.5 6.26145 1.5 6.18195 1.50825C5.81333 1.54773 5.47238 1.72232 5.22489 1.99835C4.9774 2.27437 4.84089 2.63227 4.8417 3.003C4.8417 3.08325 4.8522 3.18075 4.87395 3.375" stroke="#5E5E74" stroke-width="1.5"/>
<path d="M11.25 13.5H6.75" stroke="#5E5E74" stroke-width="1.5" stroke-linecap="round"/>
<path d="M1.78776 10.3448C1.45251 7.97175 1.28526 6.786 1.99626 6.01725C2.70726 5.25 3.97326 5.25 6.50376 5.25H11.4958C14.0263 5.25 15.2923 5.25 16.0033 6.018C16.7135 6.786 16.5463 7.97175 16.2118 10.3448L15.8953 12.5947C15.6328 14.4547 15.5015 15.3855 14.8288 15.9427C14.156 16.5 13.1638 16.5 11.1785 16.5H6.82101C4.83651 16.5 3.84351 16.5 3.17076 15.9427C2.49801 15.3855 2.36676 14.4555 2.10426 12.5947L1.78776 10.3448Z" stroke="#5E5E74" stroke-width="1.5"/>
</g>
<defs>
<clipPath id="clip0_1498_1399">
<rect width="18" height="18" fill="white"/>
</clipPath>
</defs>
</svg>
