<svg width="881" height="787" viewBox="0 0 881 787" fill="none" xmlns="http://www.w3.org/2000/svg">
<path d="M440.352 0L446.83 338.712L532.384 8.59891L459.502 341.106L620.393 34.0199L471.338 345.791L700.534 75.1518L481.819 352.56L769.304 130.197L490.488 361.119L823.696 196.75L496.965 371.093L861.335 271.902L500.969 382.046L880.575 352.368L502.323 393.5L880.575 434.632L500.969 404.954L861.335 515.098L496.965 415.907L823.696 590.25L490.488 425.881L769.304 656.803L481.819 434.44L700.534 711.848L471.338 441.209L620.393 752.98L459.502 445.894L532.384 778.401L446.83 448.288L440.352 787L433.875 448.288L348.321 778.401L421.202 445.894L260.311 752.98L409.367 441.209L180.171 711.848L398.886 434.44L111.401 656.803L390.217 425.881L57.0081 590.25L383.739 415.907L19.3693 515.098L379.736 404.954L0.129456 434.632L378.382 393.5L0.129456 352.368L379.736 382.046L19.3693 271.902L383.739 371.093L57.0081 196.75L390.217 361.119L111.401 130.197L398.886 352.56L180.171 75.1518L409.367 345.791L260.311 34.0199L421.202 341.106L348.321 8.59891L433.875 338.712L440.352 0Z" fill="#C1A8EA"/>
</svg>
