<svg width="21" height="21" viewBox="0 0 21 21" fill="none" xmlns="http://www.w3.org/2000/svg">
<g clip-path="url(#clip0_1502_1574)">
<path d="M5.82144 0.121094C6.00709 0.121094 6.18514 0.194844 6.31641 0.326119C6.44769 0.457394 6.52144 0.635442 6.52144 0.821094V2.13009H14.0384V0.830094C14.0384 0.644442 14.1122 0.466394 14.2435 0.335119C14.3747 0.203844 14.5528 0.130094 14.7384 0.130094C14.9241 0.130094 15.1021 0.203844 15.2334 0.335119C15.3647 0.466394 15.4384 0.644442 15.4384 0.830094V2.13009H18.1484C18.6787 2.13009 19.1873 2.34067 19.5623 2.71553C19.9373 3.09038 20.1482 3.59883 20.1484 4.12909V18.1221C20.1482 18.6524 19.9373 19.1608 19.5623 19.5357C19.1873 19.9105 18.6787 20.1211 18.1484 20.1211H2.14844C1.61818 20.1211 1.10962 19.9105 0.734577 19.5357C0.359533 19.1608 0.148703 18.6524 0.148438 18.1221L0.148438 4.12909C0.148703 3.59883 0.359533 3.09038 0.734577 2.71553C1.10962 2.34067 1.61818 2.13009 2.14844 2.13009H5.12144V0.820094C5.1217 0.634616 5.19557 0.456825 5.32682 0.325765C5.45806 0.194706 5.63596 0.121094 5.82144 0.121094ZM1.54844 7.86309V18.1221C1.54844 18.2009 1.56396 18.2789 1.59411 18.3517C1.62426 18.4245 1.66846 18.4906 1.72417 18.5464C1.77989 18.6021 1.84603 18.6463 1.91883 18.6764C1.99162 18.7066 2.06964 18.7221 2.14844 18.7221H18.1484C18.2272 18.7221 18.3053 18.7066 18.378 18.6764C18.4508 18.6463 18.517 18.6021 18.5727 18.5464C18.6284 18.4906 18.6726 18.4245 18.7028 18.3517C18.7329 18.2789 18.7484 18.2009 18.7484 18.1221V7.87709L1.54844 7.86309ZM6.81544 14.7401V16.4061H5.14844V14.7401H6.81544ZM10.9814 14.7401V16.4061H9.31544V14.7401H10.9814ZM15.1484 14.7401V16.4061H13.4814V14.7401H15.1484ZM6.81544 10.7631V12.4291H5.14844V10.7631H6.81544ZM10.9814 10.7631V12.4291H9.31544V10.7631H10.9814ZM15.1484 10.7631V12.4291H13.4814V10.7631H15.1484ZM5.12144 3.52909H2.14844C2.06964 3.52909 1.99162 3.54461 1.91883 3.57477C1.84603 3.60492 1.77989 3.64911 1.72417 3.70483C1.66846 3.76054 1.62426 3.82669 1.59411 3.89948C1.56396 3.97228 1.54844 4.0503 1.54844 4.12909V6.46409L18.7484 6.47809V4.12909C18.7484 4.0503 18.7329 3.97228 18.7028 3.89948C18.6726 3.82669 18.6284 3.76054 18.5727 3.70483C18.517 3.64911 18.4508 3.60492 18.378 3.57477C18.3053 3.54461 18.2272 3.52909 18.1484 3.52909H15.4384V4.45809C15.4384 4.64375 15.3647 4.82179 15.2334 4.95307C15.1021 5.08434 14.9241 5.15809 14.7384 5.15809C14.5528 5.15809 14.3747 5.08434 14.2435 4.95307C14.1122 4.82179 14.0384 4.64375 14.0384 4.45809V3.52909H6.52144V4.44909C6.52144 4.63475 6.44769 4.81279 6.31641 4.94407C6.18514 5.07534 6.00709 5.14909 5.82144 5.14909C5.63579 5.14909 5.45774 5.07534 5.32646 4.94407C5.19519 4.81279 5.12144 4.63475 5.12144 4.44909V3.52909Z" fill="#2A2A2F"/>
</g>
<defs>
<clipPath id="clip0_1502_1574">
<rect width="20" height="20" fill="white" transform="translate(0.148438 0.121094)"/>
</clipPath>
</defs>
</svg>
