<svg width="166" height="185" viewBox="0 0 166 185" fill="none" xmlns="http://www.w3.org/2000/svg">
<path d="M142.079 133.304C142.646 133.173 142.983 132.588 142.798 132.037C139.11 121.047 131.44 111.351 120.895 104.375C110.024 97.1834 96.7034 93.2852 83 93.2852C69.2966 93.2852 55.9762 97.1834 45.1046 104.375C34.5597 111.351 26.8902 121.047 23.2023 132.037C23.0173 132.588 23.3541 133.173 23.9207 133.304L73.9969 144.872C79.921 146.241 86.079 146.241 92.003 144.872L142.079 133.304Z" fill="white"/>
<ellipse cx="83.0003" cy="61.8333" rx="34.5833" ry="38.3333" fill="white"/>
<path d="M124 146.5C140.016 146.5 153 134.859 153 120.5C153 106.141 140.016 94.5 124 94.5C107.984 94.5 95 106.141 95 120.5C95 134.859 107.984 146.5 124 146.5Z" fill="#7F58F7"/>
<path d="M124 141.016C136.638 141.016 146.883 131.83 146.883 120.5C146.883 109.17 136.638 99.9844 124 99.9844C111.362 99.9844 101.117 109.17 101.117 120.5C101.117 131.83 111.362 141.016 124 141.016Z" fill="#7F5AF0" stroke="white" stroke-width="7.05644"/>
<path d="M109.5 114L113.578 131.469H134.422L138.5 114L128.984 120.5L124 109.125L119.016 120.5L109.5 114Z" fill="white"/>
</svg>
