<svg width="15" height="10" viewBox="0 0 15 10" fill="none" xmlns="http://www.w3.org/2000/svg">
<path d="M12.3546 1.24784L7.49347 6.09784L2.63239 1.24784C2.5164 1.13211 2.37869 1.04031 2.22714 0.97768C2.07559 0.915049 1.91316 0.882813 1.74912 0.882813C1.58509 0.882812 1.42266 0.915049 1.27111 0.97768C1.11955 1.04031 0.981852 1.13211 0.86586 1.24784C0.749868 1.36357 0.657858 1.50095 0.595084 1.65216C0.53231 1.80336 0.5 1.96543 0.5 2.12909C0.5 2.29275 0.53231 2.45481 0.595084 2.60602C0.657858 2.75722 0.749868 2.89461 0.86586 3.01034L6.61647 8.74784C7.10509 9.23534 7.89438 9.23534 8.383 8.74784L14.1336 3.01034C14.2498 2.8947 14.3419 2.75734 14.4048 2.60612C14.4676 2.4549 14.5 2.2928 14.5 2.12909C14.5 1.96538 14.4676 1.80327 14.4048 1.65206C14.3419 1.50084 14.2498 1.36348 14.1336 1.24784C13.645 0.772839 12.8432 0.760339 12.3546 1.24784Z" fill="#FFFFFE"/>
</svg>
